<svg xmlns="http://www.w3.org/2000/svg" width="48" height="48" viewBox="0 0 48 48">
  <defs>
    <linearGradient id="g" x1="0%" y1="0%" x2="100%" y2="100%">
      <stop offset="0%" stop-color="#22d3ee"/>
      <stop offset="100%" stop-color="#0891b2"/>
    </linearGradient>
  </defs>
  <path d="M24 6l4 2.5v5L24 16l-4-2.5v-5zM36.5 13l4 2.5v5L36.5 23l-4-2.5v-5zM36.5 25l4 2.5v5L36.5 35l-4-2.5v-5zM24 32l4 2.5v5L24 42l-4-2.5v-5zM11.5 25l4 2.5v5L11.5 35l-4-2.5v-5zM11.5 13l4 2.5v5L11.5 23l-4-2.5v-5z" fill="url(#g)"/>
  <circle cx="24" cy="24" r="6" fill="url(#g)" stroke="white" stroke-width="1.5"/>
  <circle cx="24" cy="24" r="2.5" fill="white" opacity="0.4"/>
</svg>